<?xml version="1.0" standalone="no"?>
<!DOCTYPE svg PUBLIC "-//W3C//DTD SVG 20010904//EN"
 "http://www.w3.org/TR/2001/REC-SVG-20010904/DTD/svg10.dtd">
<svg version="1.0" xmlns="http://www.w3.org/2000/svg"
 width="4069.000000pt" height="4069.000000pt" viewBox="0 0 4069.000000 4069.000000"
 preserveAspectRatio="xMidYMid meet">
<metadata>
Created by potrace 1.11, written by Peter Selinger 2001-2013
</metadata>
<g transform="translate(0.000000,4069.000000) scale(0.100000,-0.100000)"
fill="#000000" stroke="none">
<path d="M8175 29661 l-3250 -2530 -2457 -4958 c-2383 -4807 -2458 -4960
-2457 -5013 0 -54 57 59 2489 4921 l2489 4976 3226 2494 c1774 1372 3234 2495
3244 2497 17 3 7579 -1771 7613 -1786 9 -4 1800 -2324 3980 -5157 l3963 -5150
-4 -350 c-2 -192 -6 -352 -10 -355 -3 -3 -79 -4 -168 -2 l-163 4 -117 157
c-65 87 -149 203 -188 259 -38 56 -73 101 -77 102 -5 0 -8 -400 -8 -890 l0
-890 113 0 113 0 -3 -462 c-2 -255 -24 -2290 -49 -4523 -24 -2233 -44 -4140
-44 -4238 0 -165 1 -178 18 -173 9 2 2950 118 6534 258 l6518 253 -7 2148 c-4
1441 -3 2147 4 2147 6 0 12 190 16 546 3 300 8 548 10 550 3 3 204 -71 448
-164 244 -93 445 -168 447 -166 2 1 9 82 17 181 l13 178 -34 45 c-18 25 -38
51 -45 58 -70 83 -109 133 -109 142 0 5 -4 10 -8 10 -11 0 -112 126 -112 140
0 5 -4 10 -8 10 -5 0 -34 33 -65 73 -31 39 -62 79 -69 87 -7 8 -34 41 -61 75
-26 33 -62 77 -80 99 -17 21 -49 61 -70 89 -21 28 -60 76 -86 107 -26 30 -56
67 -67 81 -10 15 -74 94 -141 178 -68 83 -123 155 -123 161 0 5 -4 10 -9 10
-4 0 -35 34 -67 76 -59 76 -95 121 -251 312 -46 55 -83 104 -83 108 0 4 -6 12
-14 18 -8 6 -73 85 -145 176 -72 91 -137 172 -144 180 -13 14 -268 332 -384
479 -29 36 -59 73 -66 81 -38 43 -137 169 -137 175 0 4 -9 14 -19 23 -10 10
-231 283 -489 607 -259 325 -480 600 -491 612 -11 13 -50 60 -86 105 -122 154
-159 198 -162 195 -1 -2 -3 -311 -4 -688 -1 -376 -5 -763 -8 -861 l-6 -176
-666 311 -667 312 -162 198 -162 197 12 1133 c6 622 14 1138 16 1145 3 11 47
12 226 6 l223 -7 590 -353 590 -354 3 205 c2 142 6 205 14 205 12 0 523 -78
552 -85 11 -2 15 0 10 5 -5 4 -326 219 -714 476 l-705 468 -1719 183 c-946
100 -1721 181 -1723 179 -7 -6 -4 -513 3 -564 5 -39 3 -52 -6 -52 -9 0 -9 -4
-2 -13 15 -17 15 -697 0 -697 -7 0 -7 -4 0 -13 12 -14 18 -807 6 -807 -11 0
-632 285 -833 381 -101 49 -189 89 -194 89 -24 0 -964 436 -979 455 -10 11
-17 26 -18 33 0 6 -4 12 -9 12 -5 0 -54 60 -110 133 -55 72 -139 182 -185 242
-47 61 -97 125 -111 144 l-25 34 0 827 c0 455 -3 1090 -7 1413 l-6 586 259 -6
258 -6 966 -543 965 -542 3 229 2 229 23 0 c12 -1 191 -16 397 -34 206 -18
376 -32 378 -31 2 1 -520 335 -1160 741 l-1163 738 -2115 177 c-1163 98 -2122
178 -2130 179 -13 0 -73 85 -150 214 -14 23 -47 75 -73 115 -27 40 -47 74 -45
76 1 2 1037 -93 2301 -211 l2299 -214 1139 -765 c626 -421 1143 -765 1149
-765 13 0 113 50 108 54 -4 5 -2220 1504 -2276 1541 l-43 28 -1877 172 -1877
172 -1220 753 c-671 414 -1229 760 -1240 770 -11 10 -175 112 -365 227 -602
366 -920 562 -3214 1978 l-2244 1384 -3803 891 c-2092 490 -3815 893 -3829
896 -21 4 -547 -402 -3275 -2525z"/>
<path d="M8403 29027 c-1696 -1299 -3091 -2371 -3102 -2382 -19 -21 -5096
-10144 -5090 -10149 2 -2 335 -22 739 -45 404 -23 751 -43 770 -44 l35 -2 -4
655 -3 655 113 230 114 230 3 -4716 2 -4717 143 -6 c78 -3 722 -11 1432 -16
710 -6 1497 -13 1750 -15 253 -3 969 -9 1590 -15 622 -6 1159 -12 1195 -15 36
-2 477 -7 982 -11 l916 -6 6 83 c7 111 81 4628 75 4632 -2 2 -68 1 -146 -2
l-142 -6 5 665 c2 366 7 797 10 958 l6 292 25 0 c14 0 1152 81 2529 180 1376
99 2517 180 2533 180 l31 0 0 -1004 0 -1003 -152 -7 c-249 -11 -4572 -237
-4574 -239 -8 -8 -117 -4717 -110 -4724 2 -3 636 -11 1408 -18 771 -8 1666
-16 1988 -20 322 -3 1064 -10 1650 -15 586 -5 1310 -12 1610 -15 300 -3 820
-7 1155 -10 1351 -10 1908 -15 2275 -20 212 -3 702 -7 1090 -10 388 -3 867 -7
1065 -10 198 -3 650 -7 1005 -10 756 -6 1526 -13 2046 -21 l371 -5 6 368 c3
202 34 2850 69 5883 l62 5515 -404 525 c-222 289 -473 615 -557 725 -85 110
-174 226 -199 258 -50 63 -659 855 -714 928 -19 26 -357 464 -751 975 -635
825 -1173 1524 -1354 1759 -164 214 -654 849 -770 1000 -72 94 -230 298 -350
455 -120 157 -294 382 -385 500 -174 225 -551 716 -585 761 -21 28 -559 727
-626 814 -22 28 -147 190 -280 362 l-240 311 -107 26 c-59 14 -377 91 -707
172 -330 80 -708 172 -840 204 -132 32 -418 102 -635 155 -217 53 -458 112
-535 130 -77 18 -243 59 -370 90 -126 31 -358 88 -515 126 -157 38 -413 100
-570 139 -157 38 -460 112 -675 164 -214 52 -500 122 -635 155 -552 134 -1177
287 -1365 332 -110 27 -207 49 -215 48 -8 0 -1402 -1063 -3097 -2362z m4307
-1877 c680 -51 1293 -331 1794 -819 189 -185 342 -373 474 -582 68 -108 152
-261 152 -276 0 -6 -17 -14 -37 -18 -122 -22 -338 -125 -471 -224 -199 -148
-371 -380 -372 -504 0 -52 21 -58 84 -22 347 195 635 291 974 326 165 17 504
6 661 -20 549 -94 991 -318 1361 -690 580 -584 847 -1471 710 -2361 -68 -442
-227 -849 -485 -1235 -494 -742 -1363 -1295 -2285 -1454 -203 -35 -320 -45
-525 -44 -491 0 -1129 122 -2255 428 -470 128 -601 158 -600 138 1 -7 116 -99
194 -156 19 -14 17 -19 -53 -117 -390 -546 -920 -912 -1492 -1029 -224 -46
-501 -52 -739 -16 -912 140 -1679 818 -1864 1646 -34 155 -48 337 -36 469 5
58 9 111 10 118 0 7 26 -9 58 -35 77 -63 169 -122 271 -172 83 -42 107 -46 79
-14 -8 10 -57 68 -109 128 -480 556 -703 987 -824 1590 -83 410 -88 865 -14
1229 80 399 236 777 463 1120 126 192 230 318 397 481 154 150 259 236 414
339 334 222 686 362 1085 432 178 32 487 43 650 25 293 -33 569 -116 843 -254
98 -49 185 -86 193 -83 22 8 17 55 -13 116 -37 73 -183 219 -299 297 -171 116
-395 222 -623 294 l-104 33 59 53 c664 601 1506 921 2274 863z m671 -8175
c443 -152 987 -234 1458 -222 l204 5 -6 -121 c-7 -146 -30 -237 -92 -357 -102
-196 -287 -335 -503 -376 -95 -18 -178 -18 -288 1 -80 14 -92 19 -114 48 -124
161 -329 311 -525 383 -60 22 -62 24 -124 144 -60 116 -88 205 -101 321 -10
86 -4 199 10 199 3 0 40 -11 81 -25z m142 -1054 c89 -35 177 -123 230 -229
l42 -85 0 -116 c0 -98 -4 -123 -22 -163 -112 -241 -412 -250 -625 -20 -182
198 -172 474 23 594 87 54 242 62 352 19z m-693 -797 c111 -94 58 -264 -70
-225 -68 20 -125 109 -113 175 15 75 119 103 183 50z m8860 -3497 c0 -349 3
-991 7 -1428 l6 -795 -1144 -22 c-629 -13 -1156 -23 -1172 -22 l-27 0 2 1392
3 1393 1080 56 c594 31 1117 57 1163 58 l82 1 0 -633z m-15469 -239 c3 -8 34
-2384 31 -2388 -2 -4 -1349 -37 -1609 -39 l-63 -1 0 1170 c0 1107 1 1170 18
1171 9 0 366 20 792 43 890 50 830 47 831 44z"/>
<path d="M13540 23174 c-174 -34 -334 -155 -413 -313 -46 -92 -61 -165 -54
-271 12 -198 122 -362 304 -452 76 -38 90 -41 182 -46 82 -4 111 -1 167 17
176 54 315 188 375 361 31 91 32 228 2 325 -51 164 -183 302 -339 355 -59 21
-176 33 -224 24z m104 -459 c83 -77 50 -195 -54 -195 -50 0 -80 18 -96 56 -14
34 -14 41 1 81 18 47 62 83 101 83 12 0 33 -11 48 -25z"/>
<path d="M11420 23089 c-174 -34 -340 -208 -379 -397 -47 -226 66 -465 265
-563 64 -32 75 -34 169 -34 93 0 105 2 167 33 126 62 228 179 268 310 25 81
27 225 4 303 -53 180 -195 318 -358 348 -67 12 -73 12 -136 0z m91 -409 c48
-26 64 -118 28 -164 -16 -20 -29 -26 -62 -26 -55 0 -87 30 -87 82 0 84 62 139
121 108z"/>
<path d="M9612 23020 c-65 -14 -136 -57 -196 -120 -91 -96 -136 -209 -136
-345 0 -189 86 -347 232 -426 58 -31 70 -34 148 -34 74 0 92 4 144 30 127 64
224 203 248 358 46 301 -189 588 -440 537z m92 -393 c49 -49 40 -141 -15 -161
-91 -32 -140 84 -67 161 27 29 53 29 82 0z"/>
<path d="M20578 13675 c-328 -17 -600 -34 -604 -38 -9 -9 -30 -1695 -21 -1703
5 -6 1258 35 1265 41 6 5 -30 1720 -36 1726 -4 3 -276 -9 -604 -26z"/>
<path d="M5411 12922 l-364 -15 7 -736 c5 -405 10 -738 12 -740 4 -4 616 15
782 25 l104 6 -6 587 c-4 322 -9 655 -12 739 l-6 152 -77 -2 c-42 0 -240 -8
-440 -16z"/>
<path d="M30587 22698 c-4 -491 -7 -1041 -7 -1223 l0 -330 161 -83 c88 -46
163 -81 167 -77 6 5 60 2008 61 2275 l1 106 -181 109 c-100 61 -184 111 -188
113 -4 1 -11 -399 -14 -890z"/>
<path d="M31266 22858 c-3 -172 -8 -721 -10 -1220 l-5 -907 165 -86 c91 -48
167 -85 169 -83 2 2 15 487 29 1078 14 591 28 1127 31 1190 l5 116 -181 109
c-100 61 -185 111 -189 113 -4 2 -10 -138 -14 -310z"/>
<path d="M31906 22717 c-3 -61 -8 -610 -11 -1219 l-5 -1106 102 -55 c198 -105
228 -120 232 -116 2 2 17 537 33 1189 30 1180 30 1185 10 1203 -15 13 -299
187 -349 214 -3 1 -9 -48 -12 -110z"/>
<path d="M32498 22123 c-2 -38 -2 -112 0 -165 3 -96 3 -97 30 -102 15 -3 806
-91 1757 -197 l1730 -192 725 -481 c398 -264 736 -482 750 -484 14 -2 41 0 60
6 38 10 83 -21 -1206 830 l-290 192 -1560 191 -1559 191 -212 139 c-117 76
-215 139 -217 139 -3 0 -6 -30 -8 -67z"/>
<path d="M35580 20257 c0 -145 -3 -587 -6 -983 l-6 -719 131 -68 c73 -38 135
-66 138 -63 4 3 8 439 11 969 l5 963 -127 82 c-69 45 -131 82 -136 82 -6 0
-10 -99 -10 -263z"/>
<path d="M36007 19538 c-4 -392 -7 -824 -7 -960 l0 -246 146 -77 c80 -42 148
-75 149 -73 2 2 6 426 10 943 l8 940 -146 93 c-81 50 -148 92 -150 92 -2 0 -7
-321 -10 -712z"/>
<path d="M36407 19698 c-4 -165 -7 -588 -7 -938 l0 -637 120 -62 c66 -34 124
-60 128 -57 9 6 38 1795 29 1818 -2 8 -54 45 -113 83 -60 37 -118 74 -130 82
l-21 13 -6 -302z"/>
<path d="M12315 15107 c-1226 -82 -2231 -150 -2232 -151 -1 -1 -5 -217 -9
-480 l-7 -478 64 6 c35 4 1043 65 2239 137 1196 72 2176 132 2177 133 7 6 14
986 7 985 -5 -1 -1012 -69 -2239 -152z"/>
</g>
</svg>
